<svg id="Layer_1" xmlns="http://www.w3.org/2000/svg" viewBox="0 0 791 764"><style>.st0{fill:#fff}.st1{fill:#296eb4}</style><path class="st0" d="M600 475.8c1.8-17 4.4-33 4.7-48.9.3-15.3-.7-30.7-3-45.9-2.2-15.1-5.7-30.2-10.3-44.7-6-19-14.7-37-25.6-53.8-14.1-21.8-29-43.1-49.9-59.1-10.3-7.9-21.7-13.7-34.8-14.4-19.5-1-33.7 8.9-45 23.7-4.3 5.6-7.8 11.9-11.7 18-.5-.6-.9-1.1-1.3-1.6-9.4-13.9-18.9-27.7-32.5-38.1-15.6-11.9-30.9-13.5-48.2-3.4-12 7-21 16.9-29.8 27.2-12 14-22.7 28.9-30.5 45.5-7.8 16.6-14.9 33.8-20.7 51.2-6.9 20.5-10.3 42-11.2 63.6-.6 13.1.7 26.4 1.8 39.6 1.6 18.2 7.4 35.1 17.5 50.9-1.6.5-3 1.1-4.4 1.2-13.9.7-27.2 3.8-39.9 9.2-18.4 7.7-33.6 19.4-42.5 37.7-6.3 12.9-8.5 26.5-6.9 41 1.4 12.4 5 24 10.3 35 10.3 21.5 26.5 38.6 44.8 53.3 24.4 19.7 52.1 33.6 81.7 43.9 8.3 2.9 16.8 5.4 26.6 8.6-3.4-5.3-6-9.2-8.7-13.5 8.2 7.4 15.9 14.5 23.7 21.5 12.2 10.9 25.7 19.7 40.8 25.9 15.2 6.2 31.1 7.5 46.9 4.1 19.1-4.1 35.2-14.4 48.8-27.9 13.1-12.9 25.2-26.9 36.6-39.1-2 4.1-4.9 10.1-8 16.4 1.2 0 2.1.2 2.8 0 4.4-1.6 9-3 13.2-5 27.1-12.8 50.9-30.5 72.3-51.3 10.9-10.5 20.8-22.1 30.1-34.1 13.3-17.2 23.4-36 26.5-58.1 2.8-20.1-2.9-37-16.6-51.3-11-11.4-25.1-18.2-39.6-24.2-3-1.2-6.1-2.3-8-3.1zM355.2 352.9c1.1-19.3 3.7-38.4 13.3-55.8 8.3-15 21.4-17.3 33-10.7 8.1 4.7 13.1 12.6 16.2 21 4.3 11.7 8.2 23.7 10.7 36 3.9 19 4.3 38.4 3.4 57.8-.4 8.5-2.6 16.8-3.4 25.3-1 9.7-1.3 19.4-2 29.2 8.3-.9 17.8-2 27.3-3.1-4.7-17-7.2-34.4-7.7-52.1-.4-13.1-1.5-26.2-.8-39.3.9-16.3 1.8-32.8 7.9-48.3 2-5.1 5-9.9 8.2-14.4 6.6-9.2 19.2-7.6 26.9-.7 7.2 6.4 12.1 14.4 15.5 23.2 5.9 15 8.9 30.6 10.3 46.7 2.1 24.4.2 48.2-8.2 71.3-2.4 6.7-5.6 13.2-8.4 19.7 7.4 4.6 14.7 9.1 21.9 13.6-.2.5-.4.9-.6 1.4-51.8-20.3-101.7-14.3-150.1 11.3l-.9-1.2c3.3-2.9 6.4-6 9.9-8.7 3.5-2.7 7.3-4.8 10.8-7.1-4.1-5-8.7-9.6-12.2-14.9-9-13.9-13.9-29.4-17.2-45.5-3.7-18.1-4.9-36.4-3.8-54.7zm161.4 183.7c-6.6 15.2-19.5 23.6-33.9 29.9-15 6.6-31 9-48.3 9.6-16.3-1-33.2-3.1-48.2-13-22.6-14.9-25.8-46.2-6.6-65.1 11.8-11.6 26.1-17.8 41.7-21.4 22.1-5.1 44.3-5.7 66.2 1.6 10.4 3.5 19.7 8.6 26.2 18.1 9 12.9 9 26.4 2.9 40.3zm102.9 37.2c-4-14.3-11-25.5-23.9-31.8-5 9.1-9.3 18.2-14.7 26.6-9.1 14.4-20.2 27.5-33.1 38.5-6.4 5.5-9.7 12.3-13.4 19.1-12.1 22.3-24.2 44.6-39.6 64.8-13 17.1-28.2 31.6-49.4 38.1-20.6 6.3-40.7 6.1-60.1-4.4-1.5-.8-2.9-1.9-5-3.3 19.6-2.1 35.9-9.2 50.7-20.9-4.9-11.6-13.2-20-24.4-25.1-10.8-4.9-22.2-7.8-34.9-4.9 2.5 6.4 5 12.8 7.5 19.1-.3.2-.6.3-.8.5-4.1-4.9-8.3-9.7-12.3-14.6-10.6-12.9-23.2-23.2-38.2-30.5-1.6-.8-3.4-2.1-4.1-3.7-4.2-8.5-7.7-17.3-12.2-25.7-1.8-3.3-5-6-8-8.4-17-13.3-27.8-30.8-34.6-50.9-.3-.7-.8-1.4-1.4-2.5-14 6.2-21.4 19.1-31 29.9-1.2-24.3 36.5-55.5 69-45.3-11.6 3.9-22.1 7.5-32.9 11.1 3.9 11.9 9.7 21.7 16.8 30.6 13.7 17.4 31.1 30.1 51.1 39.3 16.1 7.4 32.9 12.8 50.5 14.7 12.1 1.3 24.3 3 36.4 2.8 26.4-.4 52-5.6 76.4-15.8 22.1-9.2 41.8-22.2 58.1-39.7 11.4-12.3 20.7-26.1 27.6-42.8-8.3-3-16.2-5.7-23.8-8.4 6.9-5.6 29-1.4 40.4 7.9 13.1 10.5 17.1 23.6 13.3 35.7z"/><path class="st1" d="M565.9 530.1c7.6 2.7 15.5 5.5 23.8 8.4-7 16.7-16.2 30.5-27.6 42.8-16.3 17.6-36 30.5-58.1 39.7-24.5 10.2-50.1 15.3-76.4 15.8-12.1.2-24.3-1.5-36.4-2.8-17.7-1.9-34.4-7.3-50.5-14.7-20-9.2-37.4-21.9-51.1-39.3-7.1-9-12.9-18.7-16.8-30.6 10.8-3.6 21.3-7.2 32.9-11.1-32.5-10.2-70.1 21-69 45.3 9.6-10.9 16.9-23.8 31-29.9.6 1.1 1.2 1.8 1.4 2.5 6.8 20.2 17.7 37.6 34.6 50.9 3 2.4 6.3 5.1 8 8.4 4.5 8.4 8 17.2 12.2 25.7.8 1.5 2.5 2.9 4.1 3.7 15 7.3 27.6 17.6 38.2 30.5 4.1 4.9 8.2 9.7 12.3 14.6.3-.2.6-.3.8-.5-2.5-6.4-5-12.7-7.5-19.1 12.7-2.9 24.1 0 34.9 4.9 11.3 5.1 19.5 13.5 24.4 25.1-14.8 11.7-31.1 18.9-50.7 20.9 2.1 1.4 3.5 2.4 5 3.3 19.4 10.5 39.5 10.7 60.1 4.4 21.2-6.5 36.4-21 49.4-38.1 15.4-20.2 27.4-42.5 39.6-64.8 3.7-6.8 7-13.6 13.4-19.1 12.9-11 24-24.1 33.1-38.5 5.4-8.5 9.7-17.5 14.7-26.6 12.8 6.2 19.9 17.5 23.9 31.8 3.8-12-.1-25.2-13.1-35.7-11.6-9.3-33.7-13.4-40.6-7.9z"/><path class="st1" d="M487.4 478.1c-21.8-7.3-44-6.7-66.2-1.6-15.6 3.6-30 9.9-41.7 21.4-19.2 18.9-15.9 50.2 6.6 65.1 15 9.9 31.9 12 48.2 13 17.3-.5 33.3-3 48.3-9.6 14.4-6.3 27.3-14.7 33.9-29.9 6.1-13.9 6-27.4-3-40.4-6.3-9.3-15.7-14.5-26.1-18z"/><path class="st1" d="M376.2 453.1c3.5 5.4 8.1 10 12.2 14.9-3.4 2.2-7.3 4.4-10.8 7.1-3.5 2.6-6.6 5.8-9.9 8.7l.9 1.2c48.4-25.6 98.3-31.6 150.2-11.4.2-.5.4-.9.6-1.4-7.2-4.5-14.5-9-21.9-13.6 2.8-6.5 6-12.9 8.4-19.7 8.4-23.1 10.3-46.9 8.2-71.3-1.4-16.1-4.5-31.7-10.3-46.7-3.4-8.7-8.3-16.7-15.5-23.2-7.8-6.9-20.3-8.6-26.9.7-3.2 4.5-6.2 9.3-8.2 14.4-6.1 15.5-7 32-7.9 48.3-.7 13 .4 26.2.8 39.3.5 17.7 2.9 35.2 7.7 52.1-9.5 1.1-19 2.2-27.3 3.1.6-9.8 1-19.5 2-29.2.8-8.5 3-16.8 3.4-25.3.9-19.3.5-38.8-3.4-57.8-2.5-12.2-6.3-24.3-10.7-36-3.1-8.4-8.1-16.3-16.2-21-11.6-6.7-24.7-4.4-33 10.7-9.6 17.4-12.2 36.5-13.3 55.8-1.1 18.3.1 36.6 3.9 54.7 3.1 16.2 8 31.7 17 45.6zm77.4-31.8c-.6-5.5-1.5-11-1.6-16.5-.2-13.5-.7-27 .1-40.5 1-17.9 2.3-36 8.9-53 1.2-3 2.7-6 4.7-8.5 4.4-5.5 11.4-6.2 17.3-1.3 7.5 6.2 12.2 14.5 14.7 23.5 3.5 12.4 6 25 8.1 37.7 1.4 8.7 2.4 17.8 2 26.6-1.1 23.8-3.4 47.4-16.5 68.5-3.8-.7-7.8-1.4-12.6-2.2.5-2.7.9-5.5 1.5-8.3 2.5-11.8 4.5-23.6-.3-35.3-.3-.7-.4-1.6-.9-2.2-2.5-3.6-4.8-8.2-10.1-7.6-5.2.6-9 3.9-11 8.9-1.3 3.3-2.4 6.7-3.6 10.1-.1 0-.4.1-.7.1zm-90.5-63.9c1-19.1 3.1-38.3 12.1-55.7 2.1-4.1 5.8-8.3 9.8-10.4 5.4-2.8 11-.3 15.6 3.7 8.9 8 13.4 18.6 16.3 29.7 3.3 12.6 6.7 25.4 7.8 38.3 1.5 17.3.9 34.8 1.2 52.3 0 .2-.4.4-.7.6-2.7-3.8-5.3-7.6-8.1-11.3-4.3-5.5-11.9-5-15.7 1.5-7.3 12.5-7.8 25.6-4.6 39 1.3 5.6 4 11 6 16.5-5.9 4.6-7.4 4.7-12.1-.5-10.4-11.5-16.5-25.4-20.7-40.2-5.9-20.8-8.1-42-6.9-63.5z"/><path class="st0" d="M390.6 461.1c4.7 5.2 6.2 5.1 12.1.5-2.1-5.5-4.7-10.8-6-16.5-3.2-13.5-2.7-26.5 4.6-39 3.8-6.5 11.4-7 15.7-1.5 2.8 3.7 5.4 7.5 8.1 11.3.3-.2.7-.4.7-.6-.3-17.4.3-34.9-1.2-52.3-1.1-12.9-4.4-25.7-7.8-38.3-2.9-11.1-7.4-21.7-16.3-29.7-4.5-4-10.2-6.5-15.6-3.7-4 2.1-7.7 6.3-9.8 10.4-9 17.4-11.1 36.6-12.1 55.7-1.2 21.5 1 42.7 6.8 63.5 4.3 14.8 10.4 28.7 20.8 40.2zM458.1 411.1c2-4.9 5.8-8.3 11-8.9 5.2-.6 7.5 3.9 10.1 7.6.4.6.6 1.5.9 2.2 4.8 11.7 2.8 23.5.3 35.3-.6 2.8-1 5.6-1.5 8.3 4.8.8 8.8 1.5 12.6 2.2 13.1-21 15.4-44.7 16.5-68.5.4-8.8-.5-17.8-2-26.6-2.1-12.7-4.6-25.4-8.1-37.7-2.5-9-7.2-17.3-14.7-23.5-5.9-4.8-12.9-4.2-17.3 1.3-2 2.5-3.6 5.5-4.7 8.5-6.7 17-7.9 35.1-8.9 53-.8 13.5-.3 27-.1 40.5.1 5.5 1 11 1.6 16.5.3-.1.6-.1.9-.2 1-3.3 2-6.7 3.4-10z"/><path d="M600 475.8c1.8-17 4.4-33 4.7-48.9.3-15.3-.7-30.7-3-45.9-2.2-15.1-5.7-30.2-10.3-44.7-6-19-14.7-37-25.6-53.8-14.1-21.8-29-43.1-49.9-59.1-10.3-7.9-21.7-13.7-34.8-14.4-19.5-1-33.7 8.9-45 23.7-4.3 5.6-7.8 11.9-11.7 18-.5-.6-.9-1.1-1.3-1.6-9.4-13.9-18.9-27.7-32.5-38.1-15.6-11.9-30.9-13.5-48.2-3.4-12 7-21 16.9-29.8 27.2-12 14-22.7 28.9-30.5 45.5-7.8 16.6-14.9 33.8-20.7 51.2-6.9 20.5-10.3 42-11.2 63.6-.6 13.1.7 26.4 1.8 39.6 1.6 18.2 7.4 35.1 17.5 50.9-1.6.5-3 1.1-4.4 1.2-13.9.7-27.2 3.8-39.9 9.2-18.4 7.7-33.6 19.4-42.5 37.7-6.3 12.9-8.5 26.5-6.9 41 1.4 12.4 5 24 10.3 35 10.3 21.5 26.5 38.6 44.8 53.3 24.4 19.7 52.1 33.6 81.7 43.9 8.3 2.9 16.8 5.4 26.6 8.6-3.4-5.3-6-9.2-8.7-13.5 8.2 7.4 15.9 14.5 23.7 21.5 12.2 10.9 25.7 19.7 40.8 25.9 15.2 6.2 31.1 7.5 46.9 4.1 19.1-4.1 35.2-14.4 48.8-27.9 13.1-12.9 25.2-26.9 36.6-39.1-2 4.1-4.9 10.1-8 16.4 1.2 0 2.1.2 2.8 0 4.4-1.6 9-3 13.2-5 27.1-12.8 50.9-30.5 72.3-51.3 10.9-10.5 20.8-22.1 30.1-34.1 13.3-17.2 23.4-36 26.5-58.1 2.8-20.1-2.9-37-16.6-51.3-11-11.4-25.1-18.2-39.6-24.2-3-1.2-6.1-2.3-8-3.1z" fill="none"/><path class="st1" d="M789 124.7c-3.5-26-13.5-49.2-29-70.3-9.8-13.4-21.2-25.1-35.2-34C708.5 9.9 691 2.5 671.5 1c-.5 0-1-.6-1.5-1h-28c-6.3 1.4-12.6 2.6-18.8 4.1-22.4 5.5-42.4 15.7-60.3 30.5-16.3 13.5-29.6 29.5-39.1 48.4-7 13.9-12.4 28.4-13.8 44.1-.7 8.2-2.4 16.5-1.8 24.6 1 13 3.6 25.8 5.6 38.8.1.6.1 1.3.1 2.3-10.7-5.3-20.7-11.2-32.6-13-12.6-1.9-23.8.6-34.1 7.7-3.8 2.6-7.5 5.7-10.2 9.3-2.9 3.8-6.3 3.5-10 3.2-2.8-.2-5.6-1.2-8.3-.8-5.8 1-9.2-1.8-12.3-6-8.2-11.1-18.6-18.9-32.4-21.4-11.7-2.1-23.2-.7-34.3 3.8-13.4 5.4-25.4 13-35.7 22.9-10.3 9.9-20.2 20.2-30.1 30.1.6-4.7 1.2-10.3 2-15.8.6-4 1.5-8.1 1.8-12.1 2.2-28.9.3-57.4-9.9-84.9-11.7-31.3-31.1-56.5-60-73.8-16.2-9.7-33.7-15.2-52.6-17.2-32.8-3.4-62.1 5.2-88.1 24.7-28.8 21.6-45.7 51.3-56.1 85.1C5.8 151.7 1.7 169 1 187c0 .7-.7 1.3-1 2v29c.7 4.1 1.5 8.2 2 12.3 3.4 25.3 12.1 48.3 28.1 68.4 18.4 23.2 42.2 37.3 71.1 42 20 3.2 40.1 1.7 59.6-4.3 9.4-2.9 18.6-6.4 27.5-9.4-5.1 9-10.9 18.2-15.6 28-8.7 18.2-14.2 37.4-17.9 57.3-3.9 21.1-4.6 42.4-3.6 63.7.8 17.1 3.1 34.2 8.6 50.6 2.1 6.2 4.5 12.2 6.5 18.4.7 2.1.9 4.6.6 6.8-4.4 29.4 4.1 55.5 20.8 79.3 10.3 14.7 23 27.1 37 38.3 15.5 12.5 32.2 23 50.2 31.5 19.7 9.3 39.9 17 61.6 20.3 3.1.5 6.3 2.6 8.8 4.8 19.3 17.3 40.5 31 66.2 36.7 2.5.5 5 .9 7.4 1.3h15c6.5-1.7 13.2-3 19.6-5.1 13.4-4.4 24.9-12.3 35.4-21.5 9.2-8.1 17.7-17 26.7-25.4 1.5-1.4 3.5-2.4 5.5-2.9 21.1-5.3 39.7-15.6 57.3-28 15.8-11 30.2-23.5 43.3-37.5 15.1-16.1 28.6-33.4 38.4-53.3 7.7-15.7 14.5-32.1 12.4-49.9-1.4-12 3.2-22.5 4.5-33.7 1.3-10.9 3.3-21.8 3.7-32.7.5-13.1.4-26.3-1-39.3-2.4-23.3-8.1-46-16.5-67.8-8.5-22.2-19.3-43.3-32.8-62.9-.5-.8-.7-1.8-1.2-3 7.7.7 15.1 2 22.4 1.9 28.9-.2 55-9.1 77.9-27 30.3-23.6 48.3-55.2 57.3-92 2-8.2 2.2-16.9 3.2-25.3.1-.9.7-1.7 1-2.5v-17c-.7-4.9-1.4-9.6-2-14.4zM647.6 503.2c13.7 14.3 19.4 31.2 16.6 51.3-3.1 22.1-13.2 40.9-26.5 58.1-9.3 12-19.3 23.6-30.1 34.1-21.4 20.8-45.2 38.5-72.3 51.3-4.3 2-8.8 3.4-13.2 5-.7.3-1.6 0-2.8 0 3-6.3 6-12.3 8-16.4-11.3 12.2-23.4 26.2-36.6 39.1-13.7 13.5-29.8 23.7-48.8 27.9-15.9 3.4-31.7 2.1-46.9-4.1-15.2-6.2-28.7-15-40.8-25.9-7.8-7-15.5-14-23.7-21.5 2.8 4.3 5.3 8.2 8.7 13.5-9.8-3.1-18.2-5.7-26.6-8.6-29.6-10.3-57.3-24.2-81.7-43.9-18.3-14.8-34.5-31.8-44.8-53.3-5.3-11-8.9-22.6-10.3-35-1.6-14.5.6-28.1 6.9-41 9-18.3 24.2-30 42.5-37.7 12.7-5.3 26.1-8.5 39.9-9.2 1.4-.1 2.8-.8 4.4-1.2-10.1-15.9-15.9-32.7-17.5-50.9-1.1-13.2-2.4-26.4-1.8-39.6.9-21.6 4.3-43.1 11.2-63.6 5.9-17.4 12.9-34.5 20.7-51.2 7.8-16.6 18.5-31.6 30.5-45.5 8.8-10.3 17.9-20.2 29.8-27.2 17.3-10.1 32.6-8.5 48.2 3.4 13.5 10.3 23.1 24.2 32.5 38.1.4.5.8 1 1.3 1.6 3.9-6.1 7.4-12.4 11.7-18 11.3-14.8 25.5-24.8 45-23.7 13.1.7 24.5 6.5 34.8 14.4 21 16 35.8 37.3 49.9 59.1 10.9 16.8 19.6 34.8 25.6 53.8 4.6 14.5 8.1 29.6 10.3 44.7 2.2 15.1 3.3 30.6 3 45.9-.4 16-3 31.9-4.7 48.9 1.9.7 5 1.9 8 3.2 14.5 5.9 28.6 12.7 39.6 24.1z"/></svg>